<svg width="83" height="62" viewBox="0 0 83 62" fill="none" xmlns="http://www.w3.org/2000/svg">
<g filter="url(#filter0_d)">
<mask id="path-1-inside-1" fill="white">
<path d="M26.3373 33.1072L25.165 31.1711C23.6883 32.2769 22.3048 33.5291 21.0316 34.9125L17.9588 38.249C17.8588 38.3576 17.7793 38.4874 17.725 38.6307C17.6707 38.774 17.6428 38.9278 17.6428 39.0833C17.6428 39.2387 17.6707 39.3926 17.725 39.5359C17.7793 39.6792 17.8588 39.8089 17.9588 39.9176L21.0316 43.2541L22.4994 41.5856L20.1949 39.0833L22.4994 36.5805C23.6816 35.2962 24.9662 34.1337 26.3373 33.1072Z"/>
<path d="M41.5007 30.3333C34.8794 30.3333 28.6428 33.3625 23.94 38.8631C23.7546 39.0799 23.6512 39.3676 23.6512 39.6666C23.6512 39.9657 23.7546 40.2533 23.94 40.4702C28.6428 45.9707 34.8794 49 41.5007 49C45.3277 49.0074 49.0985 47.9772 52.4861 45.9989L51.5148 43.9301C50.3927 44.5821 49.2219 45.1249 48.0154 45.5522C49.2348 43.8898 49.9008 41.8109 49.9008 39.6663C49.9008 37.5217 49.2348 35.4427 48.0154 33.7804C51.3224 34.9562 54.3376 36.9715 56.822 39.6666C55.8048 40.7594 54.6997 41.7465 53.5207 42.6155L54.6801 44.5609C56.2746 43.3852 57.7444 42.0129 59.0615 40.4702C59.2469 40.2533 59.3502 39.9657 59.3502 39.6666C59.3502 39.3676 59.2469 39.0799 59.0615 38.8631C54.3587 33.3625 48.1221 30.3333 41.5007 30.3333ZM34.9865 33.7805C33.767 35.4429 33.101 37.5219 33.101 39.6666C33.101 41.8113 33.767 43.8903 34.9865 45.5527C31.6792 44.377 28.6638 42.3618 26.179 39.6666C28.6638 36.9715 31.6792 34.9562 34.9865 33.7805ZM47.8006 39.6666C47.8006 41.0511 47.4311 42.4045 46.7389 43.5556C46.0466 44.7068 45.0627 45.604 43.9116 46.1338C42.7604 46.6636 41.4938 46.8022 40.2717 46.5321C39.0497 46.262 37.9271 45.5953 37.0461 44.6164C36.165 43.6374 35.5651 42.3901 35.322 41.0323C35.0789 39.6744 35.2036 38.2669 35.6805 36.9878C36.1573 35.7088 36.9647 34.6155 38.0007 33.8463C39.0367 33.0772 40.2548 32.6666 41.5007 32.6666C43.171 32.6687 44.7723 33.4068 45.9534 34.7191C47.1344 36.0315 47.7987 37.8107 47.8006 39.6666Z"/>
<path d="M66.7 29.1666H64.6001C64.6001 31.9996 63.4422 34.4385 61.9733 34.9155L61.9699 34.9119C60.9249 33.7763 59.8052 32.7288 58.6201 31.7781C60.3146 30.4383 61.4502 27.7135 61.4502 24.5H59.3502C59.3502 27.42 58.1201 29.9216 56.5871 30.2874C55.0812 29.2809 53.4959 28.4289 51.8508 27.742C53.2192 26.2825 54.1004 23.8309 54.1004 21H52.0005C52.0005 23.9411 50.7526 26.4576 49.2041 26.7949C41.8535 24.5968 34.023 25.6344 27.3437 29.6916L28.3585 31.7345C34.622 27.9318 41.9723 26.9895 48.8505 29.1074V29.1666C48.9093 29.1666 48.9679 29.1652 49.0261 29.1624C53.3479 30.5342 57.2926 33.0841 60.5021 36.5804L62.8066 39.0833L60.5021 41.5862L61.9699 43.2541L65.0427 39.917C65.1427 39.8084 65.2222 39.6786 65.2765 39.5353C65.3307 39.392 65.3587 39.2382 65.3587 39.0827C65.3587 38.9273 65.3307 38.7734 65.2765 38.6301C65.2222 38.4868 65.1427 38.3571 65.0427 38.2484L63.5778 36.6581C65.4327 35.4111 66.7 32.5615 66.7 29.1666Z"/>
<path d="M64.5248 13.6523C61.3092 10.3541 58.3431 8.57482 57.803 8.26332C56.7806 7.45657 55.0383 7.04415 52.4825 7.00332C50.3038 6.96876 47.5214 7.20413 44.2128 7.70332C38.5442 8.55878 31.3353 10.2036 24.4347 12.2161L24.9678 14.473C31.7897 12.4836 38.9072 10.8589 44.4954 10.0155C53.6148 8.63957 56.0096 9.67878 56.616 10.1895C56.6674 10.2328 56.7223 10.2707 56.7799 10.3028C56.8105 10.32 59.8785 12.0494 63.146 15.414C65.4166 17.7521 68.1465 21.2754 69.7705 25.873C69.1558 25.253 68.445 24.5937 67.6342 23.9265C64.4519 21.3067 59.0522 18.0527 51.4012 17.4297C42.3124 16.6893 31.6602 19.5865 19.7376 26.0395C17.7097 27.1371 16.1677 27.4789 15.1519 27.0564C13.9118 26.5397 13.2554 24.815 12.4952 22.8178L12.32 22.3575C12.1761 21.9833 12.1018 21.5808 12.1013 21.1739C12.1008 20.767 12.1742 20.3642 12.3171 19.9896C12.4653 19.5986 12.6831 19.2449 12.9573 18.9496C13.2315 18.6543 13.5564 18.4235 13.9128 18.271C16.0084 17.3522 19.1931 16.2255 22.8808 15.0968L22.323 12.8472C18.5649 13.9972 15.304 15.152 13.1418 16.1C12.5246 16.3658 11.9619 16.7673 11.4875 17.2804C11.0131 17.7935 10.6367 18.4076 10.3808 19.086C10.1286 19.7473 9.99912 20.4583 10 21.1765C10.0009 21.8947 10.1321 22.6053 10.3859 23.2658L10.5611 23.7262C11.4304 26.0102 12.3293 28.3721 14.4147 29.2409C16.0352 29.9155 18.0185 29.5648 20.6571 28.1368C32.2424 21.8659 42.5347 19.0471 51.2476 19.7563C58.3522 20.3348 63.359 23.3292 66.3081 25.7385C69.517 28.3606 71.0621 30.8832 71.0763 30.9066C71.2095 31.1287 71.4073 31.2933 71.6365 31.373C71.8658 31.4527 72.1127 31.4426 72.3361 31.3445C72.5595 31.2463 72.7459 31.066 72.8641 30.8336C72.9823 30.6013 73.0252 30.3309 72.9857 30.0676C72.0884 24.0855 69.1626 18.4092 64.5248 13.6523Z"/>
<path d="M41.5007 44.3333C42.6146 44.3333 43.6829 43.8416 44.4705 42.9665C45.2581 42.0913 45.7006 40.9043 45.7006 39.6666C45.7006 38.4289 45.2581 37.242 44.4705 36.3668C43.6829 35.4916 42.6146 35 41.5007 35V37.3333C41.9916 37.3333 42.467 37.5244 42.8442 37.8734C43.2214 38.2224 43.4767 38.7072 43.5658 39.2435C43.6548 39.7799 43.5718 40.334 43.3314 40.8095C43.091 41.285 42.7082 41.6519 42.2497 41.8465C41.7911 42.041 41.2857 42.0509 40.8212 41.8745C40.3567 41.698 39.9626 41.3463 39.7072 40.8805C39.4519 40.4147 39.3514 39.8642 39.4234 39.3247C39.4953 38.7851 39.7351 38.2907 40.101 37.9271L38.7006 36.1885C38.0667 36.8186 37.6199 37.6477 37.4193 38.5662C37.2187 39.4846 37.2738 40.4491 37.5774 41.3319C37.8809 42.2148 38.4185 42.9745 39.1191 43.5104C39.8197 44.0463 40.6502 44.3333 41.5007 44.3333Z"/>
</mask>
<path d="M26.3373 33.1072L25.165 31.1711C23.6883 32.2769 22.3048 33.5291 21.0316 34.9125L17.9588 38.249C17.8588 38.3576 17.7793 38.4874 17.725 38.6307C17.6707 38.774 17.6428 38.9278 17.6428 39.0833C17.6428 39.2387 17.6707 39.3926 17.725 39.5359C17.7793 39.6792 17.8588 39.8089 17.9588 39.9176L21.0316 43.2541L22.4994 41.5856L20.1949 39.0833L22.4994 36.5805C23.6816 35.2962 24.9662 34.1337 26.3373 33.1072Z" fill="url(#paint0_linear)"/>
<path d="M41.5007 30.3333C34.8794 30.3333 28.6428 33.3625 23.94 38.8631C23.7546 39.0799 23.6512 39.3676 23.6512 39.6666C23.6512 39.9657 23.7546 40.2533 23.94 40.4702C28.6428 45.9707 34.8794 49 41.5007 49C45.3277 49.0074 49.0985 47.9772 52.4861 45.9989L51.5148 43.9301C50.3927 44.5821 49.2219 45.1249 48.0154 45.5522C49.2348 43.8898 49.9008 41.8109 49.9008 39.6663C49.9008 37.5217 49.2348 35.4427 48.0154 33.7804C51.3224 34.9562 54.3376 36.9715 56.822 39.6666C55.8048 40.7594 54.6997 41.7465 53.5207 42.6155L54.6801 44.5609C56.2746 43.3852 57.7444 42.0129 59.0615 40.4702C59.2469 40.2533 59.3502 39.9657 59.3502 39.6666C59.3502 39.3676 59.2469 39.0799 59.0615 38.8631C54.3587 33.3625 48.1221 30.3333 41.5007 30.3333ZM34.9865 33.7805C33.767 35.4429 33.101 37.5219 33.101 39.6666C33.101 41.8113 33.767 43.8903 34.9865 45.5527C31.6792 44.377 28.6638 42.3618 26.179 39.6666C28.6638 36.9715 31.6792 34.9562 34.9865 33.7805ZM47.8006 39.6666C47.8006 41.0511 47.4311 42.4045 46.7389 43.5556C46.0466 44.7068 45.0627 45.604 43.9116 46.1338C42.7604 46.6636 41.4938 46.8022 40.2717 46.5321C39.0497 46.262 37.9271 45.5953 37.0461 44.6164C36.165 43.6374 35.5651 42.3901 35.322 41.0323C35.0789 39.6744 35.2036 38.2669 35.6805 36.9878C36.1573 35.7088 36.9647 34.6155 38.0007 33.8463C39.0367 33.0772 40.2548 32.6666 41.5007 32.6666C43.171 32.6687 44.7723 33.4068 45.9534 34.7191C47.1344 36.0315 47.7987 37.8107 47.8006 39.6666Z" fill="url(#paint1_linear)"/>
<path d="M66.7 29.1666H64.6001C64.6001 31.9996 63.4422 34.4385 61.9733 34.9155L61.9699 34.9119C60.9249 33.7763 59.8052 32.7288 58.6201 31.7781C60.3146 30.4383 61.4502 27.7135 61.4502 24.5H59.3502C59.3502 27.42 58.1201 29.9216 56.5871 30.2874C55.0812 29.2809 53.4959 28.4289 51.8508 27.742C53.2192 26.2825 54.1004 23.8309 54.1004 21H52.0005C52.0005 23.9411 50.7526 26.4576 49.2041 26.7949C41.8535 24.5968 34.023 25.6344 27.3437 29.6916L28.3585 31.7345C34.622 27.9318 41.9723 26.9895 48.8505 29.1074V29.1666C48.9093 29.1666 48.9679 29.1652 49.0261 29.1624C53.3479 30.5342 57.2926 33.0841 60.5021 36.5804L62.8066 39.0833L60.5021 41.5862L61.9699 43.2541L65.0427 39.917C65.1427 39.8084 65.2222 39.6786 65.2765 39.5353C65.3307 39.392 65.3587 39.2382 65.3587 39.0827C65.3587 38.9273 65.3307 38.7734 65.2765 38.6301C65.2222 38.4868 65.1427 38.3571 65.0427 38.2484L63.5778 36.6581C65.4327 35.4111 66.7 32.5615 66.7 29.1666Z" fill="url(#paint2_linear)"/>
<path d="M64.5248 13.6523C61.3092 10.3541 58.3431 8.57482 57.803 8.26332C56.7806 7.45657 55.0383 7.04415 52.4825 7.00332C50.3038 6.96876 47.5214 7.20413 44.2128 7.70332C38.5442 8.55878 31.3353 10.2036 24.4347 12.2161L24.9678 14.473C31.7897 12.4836 38.9072 10.8589 44.4954 10.0155C53.6148 8.63957 56.0096 9.67878 56.616 10.1895C56.6674 10.2328 56.7223 10.2707 56.7799 10.3028C56.8105 10.32 59.8785 12.0494 63.146 15.414C65.4166 17.7521 68.1465 21.2754 69.7705 25.873C69.1558 25.253 68.445 24.5937 67.6342 23.9265C64.4519 21.3067 59.0522 18.0527 51.4012 17.4297C42.3124 16.6893 31.6602 19.5865 19.7376 26.0395C17.7097 27.1371 16.1677 27.4789 15.1519 27.0564C13.9118 26.5397 13.2554 24.815 12.4952 22.8178L12.32 22.3575C12.1761 21.9833 12.1018 21.5808 12.1013 21.1739C12.1008 20.767 12.1742 20.3642 12.3171 19.9896C12.4653 19.5986 12.6831 19.2449 12.9573 18.9496C13.2315 18.6543 13.5564 18.4235 13.9128 18.271C16.0084 17.3522 19.1931 16.2255 22.8808 15.0968L22.323 12.8472C18.5649 13.9972 15.304 15.152 13.1418 16.1C12.5246 16.3658 11.9619 16.7673 11.4875 17.2804C11.0131 17.7935 10.6367 18.4076 10.3808 19.086C10.1286 19.7473 9.99912 20.4583 10 21.1765C10.0009 21.8947 10.1321 22.6053 10.3859 23.2658L10.5611 23.7262C11.4304 26.0102 12.3293 28.3721 14.4147 29.2409C16.0352 29.9155 18.0185 29.5648 20.6571 28.1368C32.2424 21.8659 42.5347 19.0471 51.2476 19.7563C58.3522 20.3348 63.359 23.3292 66.3081 25.7385C69.517 28.3606 71.0621 30.8832 71.0763 30.9066C71.2095 31.1287 71.4073 31.2933 71.6365 31.373C71.8658 31.4527 72.1127 31.4426 72.3361 31.3445C72.5595 31.2463 72.7459 31.066 72.8641 30.8336C72.9823 30.6013 73.0252 30.3309 72.9857 30.0676C72.0884 24.0855 69.1626 18.4092 64.5248 13.6523Z" fill="url(#paint3_linear)"/>
<path d="M41.5007 44.3333C42.6146 44.3333 43.6829 43.8416 44.4705 42.9665C45.2581 42.0913 45.7006 40.9043 45.7006 39.6666C45.7006 38.4289 45.2581 37.242 44.4705 36.3668C43.6829 35.4916 42.6146 35 41.5007 35V37.3333C41.9916 37.3333 42.467 37.5244 42.8442 37.8734C43.2214 38.2224 43.4767 38.7072 43.5658 39.2435C43.6548 39.7799 43.5718 40.334 43.3314 40.8095C43.091 41.285 42.7082 41.6519 42.2497 41.8465C41.7911 42.041 41.2857 42.0509 40.8212 41.8745C40.3567 41.698 39.9626 41.3463 39.7072 40.8805C39.4519 40.4147 39.3514 39.8642 39.4234 39.3247C39.4953 38.7851 39.7351 38.2907 40.101 37.9271L38.7006 36.1885C38.0667 36.8186 37.6199 37.6477 37.4193 38.5662C37.2187 39.4846 37.2738 40.4491 37.5774 41.3319C37.8809 42.2148 38.4185 42.9745 39.1191 43.5104C39.8197 44.0463 40.6502 44.3333 41.5007 44.3333Z" fill="url(#paint4_linear)"/>
<path d="M26.3373 33.1072L25.165 31.1711C23.6883 32.2769 22.3048 33.5291 21.0316 34.9125L17.9588 38.249C17.8588 38.3576 17.7793 38.4874 17.725 38.6307C17.6707 38.774 17.6428 38.9278 17.6428 39.0833C17.6428 39.2387 17.6707 39.3926 17.725 39.5359C17.7793 39.6792 17.8588 39.8089 17.9588 39.9176L21.0316 43.2541L22.4994 41.5856L20.1949 39.0833L22.4994 36.5805C23.6816 35.2962 24.9662 34.1337 26.3373 33.1072Z" stroke="white" stroke-width="0.8" mask="url(#path-1-inside-1)"/>
<path d="M41.5007 30.3333C34.8794 30.3333 28.6428 33.3625 23.94 38.8631C23.7546 39.0799 23.6512 39.3676 23.6512 39.6666C23.6512 39.9657 23.7546 40.2533 23.94 40.4702C28.6428 45.9707 34.8794 49 41.5007 49C45.3277 49.0074 49.0985 47.9772 52.4861 45.9989L51.5148 43.9301C50.3927 44.5821 49.2219 45.1249 48.0154 45.5522C49.2348 43.8898 49.9008 41.8109 49.9008 39.6663C49.9008 37.5217 49.2348 35.4427 48.0154 33.7804C51.3224 34.9562 54.3376 36.9715 56.822 39.6666C55.8048 40.7594 54.6997 41.7465 53.5207 42.6155L54.6801 44.5609C56.2746 43.3852 57.7444 42.0129 59.0615 40.4702C59.2469 40.2533 59.3502 39.9657 59.3502 39.6666C59.3502 39.3676 59.2469 39.0799 59.0615 38.8631C54.3587 33.3625 48.1221 30.3333 41.5007 30.3333ZM34.9865 33.7805C33.767 35.4429 33.101 37.5219 33.101 39.6666C33.101 41.8113 33.767 43.8903 34.9865 45.5527C31.6792 44.377 28.6638 42.3618 26.179 39.6666C28.6638 36.9715 31.6792 34.9562 34.9865 33.7805ZM47.8006 39.6666C47.8006 41.0511 47.4311 42.4045 46.7389 43.5556C46.0466 44.7068 45.0627 45.604 43.9116 46.1338C42.7604 46.6636 41.4938 46.8022 40.2717 46.5321C39.0497 46.262 37.9271 45.5953 37.0461 44.6164C36.165 43.6374 35.5651 42.3901 35.322 41.0323C35.0789 39.6744 35.2036 38.2669 35.6805 36.9878C36.1573 35.7088 36.9647 34.6155 38.0007 33.8463C39.0367 33.0772 40.2548 32.6666 41.5007 32.6666C43.171 32.6687 44.7723 33.4068 45.9534 34.7191C47.1344 36.0315 47.7987 37.8107 47.8006 39.6666Z" stroke="white" stroke-width="0.8" mask="url(#path-1-inside-1)"/>
<path d="M66.7 29.1666H64.6001C64.6001 31.9996 63.4422 34.4385 61.9733 34.9155L61.9699 34.9119C60.9249 33.7763 59.8052 32.7288 58.6201 31.7781C60.3146 30.4383 61.4502 27.7135 61.4502 24.5H59.3502C59.3502 27.42 58.1201 29.9216 56.5871 30.2874C55.0812 29.2809 53.4959 28.4289 51.8508 27.742C53.2192 26.2825 54.1004 23.8309 54.1004 21H52.0005C52.0005 23.9411 50.7526 26.4576 49.2041 26.7949C41.8535 24.5968 34.023 25.6344 27.3437 29.6916L28.3585 31.7345C34.622 27.9318 41.9723 26.9895 48.8505 29.1074V29.1666C48.9093 29.1666 48.9679 29.1652 49.0261 29.1624C53.3479 30.5342 57.2926 33.0841 60.5021 36.5804L62.8066 39.0833L60.5021 41.5862L61.9699 43.2541L65.0427 39.917C65.1427 39.8084 65.2222 39.6786 65.2765 39.5353C65.3307 39.392 65.3587 39.2382 65.3587 39.0827C65.3587 38.9273 65.3307 38.7734 65.2765 38.6301C65.2222 38.4868 65.1427 38.3571 65.0427 38.2484L63.5778 36.6581C65.4327 35.4111 66.7 32.5615 66.7 29.1666Z" stroke="white" stroke-width="0.8" mask="url(#path-1-inside-1)"/>
<path d="M64.5248 13.6523C61.3092 10.3541 58.3431 8.57482 57.803 8.26332C56.7806 7.45657 55.0383 7.04415 52.4825 7.00332C50.3038 6.96876 47.5214 7.20413 44.2128 7.70332C38.5442 8.55878 31.3353 10.2036 24.4347 12.2161L24.9678 14.473C31.7897 12.4836 38.9072 10.8589 44.4954 10.0155C53.6148 8.63957 56.0096 9.67878 56.616 10.1895C56.6674 10.2328 56.7223 10.2707 56.7799 10.3028C56.8105 10.32 59.8785 12.0494 63.146 15.414C65.4166 17.7521 68.1465 21.2754 69.7705 25.873C69.1558 25.253 68.445 24.5937 67.6342 23.9265C64.4519 21.3067 59.0522 18.0527 51.4012 17.4297C42.3124 16.6893 31.6602 19.5865 19.7376 26.0395C17.7097 27.1371 16.1677 27.4789 15.1519 27.0564C13.9118 26.5397 13.2554 24.815 12.4952 22.8178L12.32 22.3575C12.1761 21.9833 12.1018 21.5808 12.1013 21.1739C12.1008 20.767 12.1742 20.3642 12.3171 19.9896C12.4653 19.5986 12.6831 19.2449 12.9573 18.9496C13.2315 18.6543 13.5564 18.4235 13.9128 18.271C16.0084 17.3522 19.1931 16.2255 22.8808 15.0968L22.323 12.8472C18.5649 13.9972 15.304 15.152 13.1418 16.1C12.5246 16.3658 11.9619 16.7673 11.4875 17.2804C11.0131 17.7935 10.6367 18.4076 10.3808 19.086C10.1286 19.7473 9.99912 20.4583 10 21.1765C10.0009 21.8947 10.1321 22.6053 10.3859 23.2658L10.5611 23.7262C11.4304 26.0102 12.3293 28.3721 14.4147 29.2409C16.0352 29.9155 18.0185 29.5648 20.6571 28.1368C32.2424 21.8659 42.5347 19.0471 51.2476 19.7563C58.3522 20.3348 63.359 23.3292 66.3081 25.7385C69.517 28.3606 71.0621 30.8832 71.0763 30.9066C71.2095 31.1287 71.4073 31.2933 71.6365 31.373C71.8658 31.4527 72.1127 31.4426 72.3361 31.3445C72.5595 31.2463 72.7459 31.066 72.8641 30.8336C72.9823 30.6013 73.0252 30.3309 72.9857 30.0676C72.0884 24.0855 69.1626 18.4092 64.5248 13.6523Z" stroke="white" stroke-width="0.8" mask="url(#path-1-inside-1)"/>
<path d="M41.5007 44.3333C42.6146 44.3333 43.6829 43.8416 44.4705 42.9665C45.2581 42.0913 45.7006 40.9043 45.7006 39.6666C45.7006 38.4289 45.2581 37.242 44.4705 36.3668C43.6829 35.4916 42.6146 35 41.5007 35V37.3333C41.9916 37.3333 42.467 37.5244 42.8442 37.8734C43.2214 38.2224 43.4767 38.7072 43.5658 39.2435C43.6548 39.7799 43.5718 40.334 43.3314 40.8095C43.091 41.285 42.7082 41.6519 42.2497 41.8465C41.7911 42.041 41.2857 42.0509 40.8212 41.8745C40.3567 41.698 39.9626 41.3463 39.7072 40.8805C39.4519 40.4147 39.3514 39.8642 39.4234 39.3247C39.4953 38.7851 39.7351 38.2907 40.101 37.9271L38.7006 36.1885C38.0667 36.8186 37.6199 37.6477 37.4193 38.5662C37.2187 39.4846 37.2738 40.4491 37.5774 41.3319C37.8809 42.2148 38.4185 42.9745 39.1191 43.5104C39.8197 44.0463 40.6502 44.3333 41.5007 44.3333Z" stroke="white" stroke-width="0.8" mask="url(#path-1-inside-1)"/>
</g>
<defs>
<filter id="filter0_d" x="0" y="0" width="83" height="62" filterUnits="userSpaceOnUse" color-interpolation-filters="sRGB">
<feFlood flood-opacity="0" result="BackgroundImageFix"/>
<feColorMatrix in="SourceAlpha" type="matrix" values="0 0 0 0 0 0 0 0 0 0 0 0 0 0 0 0 0 0 127 0"/>
<feOffset dy="3"/>
<feGaussianBlur stdDeviation="5"/>
<feColorMatrix type="matrix" values="0 0 0 0 0 0 0 0 0 0 0 0 0 0 0 0 0 0 0.1 0"/>
<feBlend mode="normal" in2="BackgroundImageFix" result="effect1_dropShadow"/>
<feBlend mode="normal" in="SourceGraphic" in2="effect1_dropShadow" result="shape"/>
</filter>
<linearGradient id="paint0_linear" x1="41.5" y1="7" x2="41.5" y2="49" gradientUnits="userSpaceOnUse">
<stop stop-color="#FFD240"/>
<stop offset="1" stop-color="#DE1B4B" stop-opacity="0.97"/>
</linearGradient>
<linearGradient id="paint1_linear" x1="41.5" y1="7" x2="41.5" y2="49" gradientUnits="userSpaceOnUse">
<stop stop-color="#FFD240"/>
<stop offset="1" stop-color="#DE1B4B" stop-opacity="0.97"/>
</linearGradient>
<linearGradient id="paint2_linear" x1="41.5" y1="7" x2="41.5" y2="49" gradientUnits="userSpaceOnUse">
<stop stop-color="#FFD240"/>
<stop offset="1" stop-color="#DE1B4B" stop-opacity="0.97"/>
</linearGradient>
<linearGradient id="paint3_linear" x1="41.5" y1="7" x2="41.5" y2="49" gradientUnits="userSpaceOnUse">
<stop stop-color="#FFD240"/>
<stop offset="1" stop-color="#DE1B4B" stop-opacity="0.97"/>
</linearGradient>
<linearGradient id="paint4_linear" x1="41.5" y1="7" x2="41.5" y2="49" gradientUnits="userSpaceOnUse">
<stop stop-color="#FFD240"/>
<stop offset="1" stop-color="#DE1B4B" stop-opacity="0.97"/>
</linearGradient>
</defs>
</svg>
