<svg width="73" height="62" viewBox="0 0 73 62" fill="none" xmlns="http://www.w3.org/2000/svg">
<g filter="url(#filter0_d)">
<path d="M34.4445 48.2859C12.9804 29.2158 14.4439 30.5227 14.148 30.239C14.1473 30.2384 14.1466 30.2377 14.1459 30.237C7.32671 23.6961 9.42165 13.0027 16.7727 8.77342C17.1419 8.56095 17.6134 8.68778 17.8261 9.05624C18.0388 9.4248 17.9119 9.89575 17.5429 10.1081C10.8383 13.9653 9.14583 23.7505 15.5871 29.4699L35.4699 47.1351C35.9577 47.5685 36.6922 47.5673 37.179 47.1351L43.5485 41.476C43.8668 41.1933 44.3543 41.2216 44.6374 41.5395C44.9205 41.8573 44.8921 42.3441 44.5739 42.6268L38.2043 48.2859C37.1315 49.239 35.5152 49.2371 34.4445 48.2859ZM46.174 40.1742C45.8909 39.8564 45.9193 39.3696 46.2376 39.0869L57.0617 29.4701C59.3059 27.4762 60.6756 24.9122 61.0228 22.055C61.8076 15.5946 57.1245 8.54586 49.0894 8.54586C43.4458 8.54586 38.5096 12.543 37.3525 18.05C37.1199 19.157 35.53 19.1595 35.2965 18.0503C33.9507 11.6456 27.4961 7.26652 20.6689 8.87488C20.2543 8.97213 19.839 8.71622 19.7411 8.30207C19.6433 7.88811 19.9 7.47324 20.3147 7.37557C27.226 5.74749 34.0311 9.55615 36.3245 16.0209C37.1433 13.7127 38.5896 11.6423 40.5042 10.0721C45.9405 5.61296 54.1172 6.02363 58.957 11.2281C61.6455 14.1193 63.0437 18.2126 62.5542 22.2405C62.161 25.4758 60.6164 28.3737 58.0871 30.6207L47.263 40.2376C46.9446 40.5204 46.457 40.4919 46.174 40.1742Z" fill="url(#paint0_linear)"/>
</g>
<defs>
<filter id="filter0_d" x="0" y="0" width="72.6507" height="62" filterUnits="userSpaceOnUse" color-interpolation-filters="sRGB">
<feFlood flood-opacity="0" result="BackgroundImageFix"/>
<feColorMatrix in="SourceAlpha" type="matrix" values="0 0 0 0 0 0 0 0 0 0 0 0 0 0 0 0 0 0 127 0"/>
<feOffset dy="3"/>
<feGaussianBlur stdDeviation="5"/>
<feColorMatrix type="matrix" values="0 0 0 0 0 0 0 0 0 0 0 0 0 0 0 0 0 0 0.1 0"/>
<feBlend mode="normal" in2="BackgroundImageFix" result="effect1_dropShadow"/>
<feBlend mode="normal" in="SourceGraphic" in2="effect1_dropShadow" result="shape"/>
</filter>
<linearGradient id="paint0_linear" x1="36.3254" y1="7" x2="36.3254" y2="49" gradientUnits="userSpaceOnUse">
<stop stop-color="#FFD240"/>
<stop offset="1" stop-color="#DE1B4B" stop-opacity="0.97"/>
</linearGradient>
</defs>
</svg>
