<svg width="60" height="62" viewBox="0 0 60 62" fill="none" xmlns="http://www.w3.org/2000/svg">
<g filter="url(#filter0_d)">
<path d="M47.2293 40.6437H46.9299V36.9941C46.9299 35.923 46.0585 35.0516 44.9874 35.0516H44.3246V31.6297C44.3246 30.446 43.3616 29.4829 42.1778 29.4829H40.2226V25.3174C40.2226 24.2661 39.3674 23.4109 38.3161 23.4109H23.2748C22.2236 23.4109 21.3683 24.2661 21.3683 25.3174V29.4829H19.4131C18.2293 29.4829 17.2662 30.446 17.2662 31.6297V35.0516H16.6857C15.6147 35.0516 14.7432 35.923 14.7432 36.9941V40.6437H14.4438C13.2378 40.6437 12.2567 41.6248 12.2567 42.8309V48.3842C12.2567 48.7244 12.5324 49 12.8725 49H48.8006C49.1408 49 49.4165 48.7244 49.4165 48.3842V42.8309C49.4164 41.6249 48.4352 40.6437 47.2293 40.6437ZM18.498 31.6297C18.498 31.125 18.9086 30.7146 19.4131 30.7146H33.8279C34.1681 30.7146 34.4437 30.4389 34.4437 30.0987C34.4437 29.7585 34.1681 29.4829 33.8279 29.4829H22.6V25.3174C22.6 24.9453 22.9027 24.6426 23.2748 24.6426H38.3161C38.6882 24.6426 38.9909 24.9453 38.9909 25.3174V29.4829H36.4524C36.1123 29.4829 35.8366 29.7585 35.8366 30.0987C35.8366 30.4389 36.1123 30.7146 36.4524 30.7146H42.1778C42.6825 30.7146 43.093 31.125 43.093 31.6297V35.0516H18.498V31.6297ZM48.1847 47.7683H13.4883V42.8309C13.4883 42.304 13.9169 41.8754 14.4437 41.8754H21.7155C22.0557 41.8754 22.3314 41.5998 22.3314 41.2596C22.3314 40.9194 22.0557 40.6437 21.7155 40.6437H15.9748V36.9941C15.9748 36.6022 16.2937 36.2833 16.6856 36.2833H44.9873C45.3792 36.2833 45.698 36.6022 45.698 36.9941V40.6437H24.34C23.9999 40.6437 23.7242 40.9194 23.7242 41.2596C23.7242 41.5998 23.9999 41.8754 24.34 41.8754H47.2292C47.756 41.8754 48.1847 42.304 48.1847 42.8309V47.7683Z" fill="url(#paint0_linear)"/>
<path d="M26.1777 16.8632L25.4717 20.9801C25.3972 21.4144 25.5723 21.8451 25.9289 22.1042C26.2854 22.3631 26.7492 22.3967 27.1393 22.1916L30.8365 20.2479L34.5337 22.1916C34.7034 22.2808 34.8871 22.3249 35.0697 22.3249C35.307 22.3249 35.5427 22.2505 35.7442 22.1041C36.1008 21.8451 36.2759 21.4144 36.2013 20.9801L35.4952 16.8632L38.4864 13.9475C38.802 13.6399 38.9134 13.1884 38.7773 12.7692C38.6411 12.3501 38.2856 12.0504 37.8494 11.987L36.9078 11.8503C36.5718 11.8007 36.2587 12.0345 36.2099 12.3712C36.1609 12.7077 36.3941 13.0202 36.7308 13.0691L37.5072 13.1819L34.6046 16.0113C34.3336 16.2754 34.21 16.6557 34.274 17.0287L34.9592 21.0238L31.3714 19.1376C31.0365 18.9614 30.6365 18.9614 30.3017 19.1376L26.7138 21.0238L27.399 17.0286C27.4629 16.6556 27.3393 16.2752 27.0684 16.0114L24.1658 13.1819L28.1772 12.599C28.5516 12.5446 28.8751 12.3096 29.0425 11.9703L30.8365 8.33538L32.6305 11.9702C32.7978 12.3095 33.1213 12.5446 33.4958 12.599L34.1236 12.6903C34.4603 12.7398 34.7727 12.5059 34.8216 12.1694C34.8706 11.8328 34.6374 11.5203 34.3008 11.4714L33.7157 11.3864L31.8673 7.6408C31.6722 7.24551 31.2772 7 30.8365 7C30.3957 7 30.0009 7.24551 29.8058 7.64072L27.9572 11.3864L23.8235 11.987C23.3874 12.0504 23.0319 12.3501 22.8957 12.7692C22.7596 13.1883 22.871 13.6399 23.1866 13.9474L26.1777 16.8632Z" fill="url(#paint1_linear)"/>
<path d="M30.8365 17.3259C31.1767 17.3259 31.4523 17.0503 31.4523 16.7101V13.297C31.4523 12.9568 31.1767 12.6811 30.8365 12.6811H30.1069C29.7668 12.6811 29.4911 12.9568 29.4911 13.297C29.4911 13.6372 29.7668 13.9128 30.1069 13.9128H30.2207V16.7101C30.2207 17.0502 30.4964 17.3259 30.8365 17.3259Z" fill="url(#paint2_linear)"/>
<path d="M41.4168 11.6191C41.5744 11.6191 41.7321 11.559 41.8523 11.4388L42.8746 10.4165C43.1151 10.1759 43.1151 9.78605 42.8746 9.54554C42.6341 9.30512 42.2442 9.30512 42.0037 9.54554L40.9814 10.5678C40.7409 10.8084 40.7409 11.1983 40.9814 11.4388C41.1017 11.5589 41.2593 11.6191 41.4168 11.6191Z" fill="url(#paint3_linear)"/>
<path d="M42.0037 20.8951C42.124 21.0153 42.2816 21.0754 42.4392 21.0754C42.5968 21.0754 42.7544 21.0153 42.8747 20.8951C43.1152 20.6545 43.1152 20.2646 42.8747 20.0241L41.8524 19.0018C41.6118 18.7614 41.222 18.7614 40.9815 19.0018C40.741 19.2424 40.741 19.6323 40.9815 19.8728L42.0037 20.8951Z" fill="url(#paint4_linear)"/>
<path d="M40.801 15.2203C40.801 15.5605 41.0766 15.8361 41.4168 15.8361H43.2485C43.5887 15.8361 43.8643 15.5605 43.8643 15.2203C43.8643 14.8801 43.5887 14.6044 43.2485 14.6044H41.4168C41.0767 14.6044 40.801 14.8802 40.801 15.2203Z" fill="url(#paint5_linear)"/>
<path d="M19.8207 11.4388C19.941 11.559 20.0986 11.6191 20.2562 11.6191C20.4138 11.6191 20.5714 11.559 20.6916 11.4388C20.9321 11.1982 20.9321 10.8083 20.6916 10.5678L19.6693 9.54546C19.4288 9.30504 19.0389 9.30504 18.7985 9.54546C18.5579 9.78605 18.5579 10.1759 18.7985 10.4164L19.8207 11.4388Z" fill="url(#paint6_linear)"/>
<path d="M19.8207 19.0018L18.7985 20.024C18.5579 20.2646 18.5579 20.6545 18.7985 20.895C18.9187 21.0152 19.0763 21.0753 19.2339 21.0753C19.3915 21.0753 19.5491 21.0152 19.6693 20.895L20.6916 19.8727C20.9321 19.6321 20.9321 19.2423 20.6916 19.0018C20.4511 18.7613 20.0612 18.7613 19.8207 19.0018Z" fill="url(#paint7_linear)"/>
<path d="M18.4245 15.8361H20.2562C20.5963 15.8361 20.872 15.5605 20.872 15.2203C20.872 14.8801 20.5963 14.6044 20.2562 14.6044H18.4245C18.0844 14.6044 17.8087 14.8801 17.8087 15.2203C17.8087 15.5605 18.0844 15.8361 18.4245 15.8361Z" fill="url(#paint8_linear)"/>
<path d="M49.6516 24.903L46.8927 21.7421C46.7469 21.575 46.5358 21.4791 46.314 21.4791C46.0922 21.4791 45.8812 21.575 45.7352 21.7422L42.9765 24.9029C42.7788 25.1293 42.7314 25.4523 42.8558 25.7259C42.9801 25.9994 43.2545 26.1762 43.5551 26.1762H44.4482V28.7158C44.4482 29.056 44.7239 29.3316 45.0641 29.3316C45.4043 29.3316 45.6799 29.056 45.6799 28.7158V25.7127C45.6799 25.2891 45.3354 24.9446 44.9118 24.9446H44.5749L46.314 22.9521L48.0531 24.9446H47.7162C47.2927 24.9446 46.9481 25.2891 46.9481 25.7127V28.7158C46.9481 29.056 47.2238 29.3316 47.5639 29.3316C47.9041 29.3316 48.1798 29.056 48.1798 28.7158V26.1762H49.0729C49.3734 26.1762 49.6479 25.9994 49.7723 25.7259C49.8966 25.4524 49.8492 25.1293 49.6516 24.903Z" fill="url(#paint9_linear)"/>
<path d="M12.8928 32.0264V29.0232C12.8928 28.5997 12.5482 28.2551 12.1247 28.2551H11.7878L13.5268 26.2626L15.2658 28.2551H14.929C14.5055 28.2551 14.1609 28.5997 14.1609 29.0232V32.0264C14.1609 32.3666 14.4366 32.6422 14.7767 32.6422C15.1168 32.6422 15.3925 32.3666 15.3925 32.0264V29.4867H16.2857C16.5861 29.4867 16.8606 29.31 16.985 29.0365C17.1093 28.7629 17.062 28.4398 16.8644 28.2134L14.1054 25.0526C13.9595 24.8855 13.7487 24.7896 13.5268 24.7896C13.3049 24.7896 13.0941 24.8855 12.9481 25.0526L10.1891 28.2134C9.99157 28.4399 9.94427 28.7629 10.0686 29.0365C10.193 29.31 10.4674 29.4867 10.7679 29.4867H11.6611V32.0264C11.6611 32.3666 11.9368 32.6422 12.2769 32.6422C12.617 32.6422 12.8928 32.3666 12.8928 32.0264Z" fill="url(#paint10_linear)"/>
</g>
<defs>
<filter id="filter0_d" x="0" y="0" width="59.8408" height="62" filterUnits="userSpaceOnUse" color-interpolation-filters="sRGB">
<feFlood flood-opacity="0" result="BackgroundImageFix"/>
<feColorMatrix in="SourceAlpha" type="matrix" values="0 0 0 0 0 0 0 0 0 0 0 0 0 0 0 0 0 0 127 0"/>
<feOffset dy="3"/>
<feGaussianBlur stdDeviation="5"/>
<feColorMatrix type="matrix" values="0 0 0 0 0 0 0 0 0 0 0 0 0 0 0 0 0 0 0.1 0"/>
<feBlend mode="normal" in2="BackgroundImageFix" result="effect1_dropShadow"/>
<feBlend mode="normal" in="SourceGraphic" in2="effect1_dropShadow" result="shape"/>
</filter>
<linearGradient id="paint0_linear" x1="29.9204" y1="7" x2="29.9204" y2="49" gradientUnits="userSpaceOnUse">
<stop stop-color="#FFD240"/>
<stop offset="1" stop-color="#DE1B4B" stop-opacity="0.97"/>
</linearGradient>
<linearGradient id="paint1_linear" x1="29.9204" y1="7" x2="29.9204" y2="49" gradientUnits="userSpaceOnUse">
<stop stop-color="#FFD240"/>
<stop offset="1" stop-color="#DE1B4B" stop-opacity="0.97"/>
</linearGradient>
<linearGradient id="paint2_linear" x1="29.9204" y1="7" x2="29.9204" y2="49" gradientUnits="userSpaceOnUse">
<stop stop-color="#FFD240"/>
<stop offset="1" stop-color="#DE1B4B" stop-opacity="0.97"/>
</linearGradient>
<linearGradient id="paint3_linear" x1="29.9204" y1="7" x2="29.9204" y2="49" gradientUnits="userSpaceOnUse">
<stop stop-color="#FFD240"/>
<stop offset="1" stop-color="#DE1B4B" stop-opacity="0.97"/>
</linearGradient>
<linearGradient id="paint4_linear" x1="29.9204" y1="7" x2="29.9204" y2="49" gradientUnits="userSpaceOnUse">
<stop stop-color="#FFD240"/>
<stop offset="1" stop-color="#DE1B4B" stop-opacity="0.97"/>
</linearGradient>
<linearGradient id="paint5_linear" x1="29.9204" y1="7" x2="29.9204" y2="49" gradientUnits="userSpaceOnUse">
<stop stop-color="#FFD240"/>
<stop offset="1" stop-color="#DE1B4B" stop-opacity="0.97"/>
</linearGradient>
<linearGradient id="paint6_linear" x1="29.9204" y1="7" x2="29.9204" y2="49" gradientUnits="userSpaceOnUse">
<stop stop-color="#FFD240"/>
<stop offset="1" stop-color="#DE1B4B" stop-opacity="0.97"/>
</linearGradient>
<linearGradient id="paint7_linear" x1="29.9204" y1="7" x2="29.9204" y2="49" gradientUnits="userSpaceOnUse">
<stop stop-color="#FFD240"/>
<stop offset="1" stop-color="#DE1B4B" stop-opacity="0.97"/>
</linearGradient>
<linearGradient id="paint8_linear" x1="29.9204" y1="7" x2="29.9204" y2="49" gradientUnits="userSpaceOnUse">
<stop stop-color="#FFD240"/>
<stop offset="1" stop-color="#DE1B4B" stop-opacity="0.97"/>
</linearGradient>
<linearGradient id="paint9_linear" x1="29.9204" y1="7" x2="29.9204" y2="49" gradientUnits="userSpaceOnUse">
<stop stop-color="#FFD240"/>
<stop offset="1" stop-color="#DE1B4B" stop-opacity="0.97"/>
</linearGradient>
<linearGradient id="paint10_linear" x1="29.9204" y1="7" x2="29.9204" y2="49" gradientUnits="userSpaceOnUse">
<stop stop-color="#FFD240"/>
<stop offset="1" stop-color="#DE1B4B" stop-opacity="0.97"/>
</linearGradient>
</defs>
</svg>
