<svg width="71" height="62" viewBox="0 0 71 62" fill="none" xmlns="http://www.w3.org/2000/svg">
<g filter="url(#filter0_d)">
<path d="M37.7757 39.0738C36.463 39.0738 35.5976 39.5689 35.0774 40.0363C34.3545 39.386 33.4459 39.0441 32.4099 39.0441C28.8717 39.0441 24.7031 43.0078 24.5283 43.1749C24.3829 43.3162 24.3003 43.5087 24.2964 43.7129C24.2945 43.9151 24.3732 44.1096 24.5183 44.2551C27.6657 47.4034 31.1182 49 34.7764 49C41.0366 49 45.5854 44.3512 45.7738 44.1529C45.917 44.0038 45.9957 43.7974 45.9838 43.5913C45.9722 43.3829 45.8738 43.1888 45.7209 43.0552C42.5984 40.4094 39.9274 39.0738 37.7757 39.0738ZM34.481 41.619C34.6322 41.8331 34.8777 41.9705 35.1528 41.9334C35.4147 41.9118 35.6515 41.7544 35.7686 41.519C35.7724 41.5074 36.2811 40.5762 37.7799 40.5762C38.853 40.5762 40.6876 41.079 43.496 43.2039C42.1568 43.42 40.0903 43.7126 38.6627 43.7126C38.2699 43.7126 37.8144 43.6419 37.3097 43.5671C36.5978 43.4594 35.7992 43.3417 34.9106 43.3417C33.9804 43.3417 33.1586 43.5065 32.4967 43.6361C32.038 43.7265 31.6394 43.8068 31.3439 43.8068C29.4222 43.8068 27.7508 43.5178 26.7048 43.2865C28.0776 42.1866 30.4531 40.5465 32.4141 40.5465C33.2892 40.5507 33.9665 40.9003 34.481 41.619ZM27.7799 45.0308C28.7813 45.1876 29.998 45.3176 31.3397 45.3176C31.7865 45.3176 32.2754 45.2192 32.7902 45.1153C34.041 44.8641 35.7724 44.8599 37.0836 45.0582C37.6706 45.1466 38.205 45.2234 38.6608 45.2234C39.7881 45.2234 41.2318 45.0624 42.4748 44.8873C40.6799 46.1033 37.9489 47.4937 34.7771 47.4937C32.3432 47.4895 30.0041 46.6413 27.7799 45.0308ZM57.9159 18.5166C58.2026 18.8201 58.1868 19.2965 57.8862 19.5804C57.7369 19.7168 57.5524 19.7874 57.3659 19.7874C57.1656 19.7874 56.9673 19.7087 56.8218 19.5517L56.5057 19.2178C56.6334 19.5146 56.6096 19.8623 56.3486 20.0813C56.2074 20.198 56.0383 20.2542 55.8697 20.2542C55.6536 20.2542 55.4375 20.1638 55.2881 19.9852L55.0485 19.7013C55.3039 20.0255 55.253 20.4957 54.9246 20.7493C54.7891 20.8602 54.624 20.9141 54.4595 20.9141C54.2376 20.9141 54.0176 20.818 53.8702 20.6283L53.3754 20.0068C52.1972 20.5112 50.9441 20.7009 49.7343 20.7009C46.2853 20.7009 43.188 19.1678 43.1351 19.1424C42.7642 18.955 42.6148 18.5021 42.8051 18.1318C42.9938 17.7609 43.4496 17.6093 43.8147 17.798C43.8934 17.8345 51.6431 21.6533 55.3455 16.5256C55.589 16.1876 56.0583 16.115 56.3983 16.3566C56.6538 16.5459 56.7047 16.8594 56.626 17.151L57.9159 18.5166ZM50.4993 13.8991C50.0733 13.9769 49.6901 13.7195 49.6078 13.314C49.5253 12.9054 49.7885 12.5067 50.1968 12.4222C51.6344 12.1248 54.6082 12.328 55.5997 15.1877C55.7374 15.5825 55.5291 16.0105 55.1401 16.1472C55.0536 16.1776 54.9714 16.1895 54.8927 16.1895C54.5801 16.1895 54.2876 15.9969 54.1795 15.6847C53.3629 13.3376 50.6074 13.8765 50.4993 13.8991ZM60.0956 10.1402C59.8224 10.4534 59.3473 10.4918 59.0331 10.2167C53.3038 5.25469 44.1556 12.867 44.0614 12.9457C43.9218 13.0644 43.7469 13.1224 43.5744 13.1224C43.3621 13.1224 43.1502 13.0321 42.999 12.8544C42.73 12.539 42.7709 12.0629 43.0893 11.7929C43.5076 11.4452 53.3255 3.27816 60.0208 9.07778C60.3333 9.35129 60.3665 9.82575 60.0956 10.1402ZM20.5427 20.7025C19.3357 20.7025 18.0846 20.5151 16.9063 20.0084L16.4074 20.6322C16.258 20.8196 16.039 20.916 15.82 20.916C15.6552 20.916 15.4881 20.8618 15.3498 20.7509C15.0275 20.4935 14.9737 20.0252 15.2291 19.6991L14.9875 19.9868C14.8382 20.1655 14.625 20.2558 14.4083 20.2558C14.2373 20.2558 14.0664 20.1996 13.9261 20.0829C13.6638 19.8639 13.6422 19.5181 13.767 19.2217L13.4548 19.5536C13.3084 19.7107 13.1094 19.7894 12.9078 19.7894C12.7214 19.7894 12.5385 19.7207 12.3914 19.582C12.0898 19.2981 12.076 18.8221 12.3608 18.5186L13.6442 17.1565C13.5655 16.8649 13.6135 16.5498 13.8728 16.3601C14.2086 16.1185 14.6798 16.1914 14.9256 16.5288C18.6374 21.6714 26.3807 17.837 26.459 17.8025C26.8313 17.6109 27.2857 17.7603 27.4705 18.1334C27.6589 18.5066 27.5109 18.9601 27.1386 19.1459C27.0887 19.1694 23.9913 20.7025 20.5427 20.7025ZM20.086 12.4222C20.4895 12.5067 20.7536 12.9034 20.6733 13.3092C20.5888 13.712 20.2001 13.9749 19.7866 13.8965C19.6676 13.8749 16.9121 13.3602 16.1081 15.6786C15.999 15.9898 15.7075 16.1853 15.3962 16.1853C15.3136 16.1853 15.2311 16.1734 15.1508 16.143C14.7569 16.0085 14.5476 15.5802 14.6863 15.1854C15.6729 12.328 18.6436 12.1226 20.086 12.4222ZM11.2451 10.2167C10.9309 10.4934 10.4565 10.4531 10.1826 10.1402C9.91171 9.82575 9.94623 9.34968 10.2594 9.07778C16.9605 3.27042 26.7764 11.4433 27.1912 11.7929C27.5092 12.0629 27.5496 12.539 27.2815 12.8544C27.1335 13.0302 26.9203 13.1224 26.7051 13.1224C26.5342 13.1224 26.3633 13.0644 26.22 12.9457C26.1313 12.867 16.9721 5.25857 11.2451 10.2167ZM29.1903 35.0791C28.8849 34.7982 28.8584 34.327 29.1365 34.0183C29.2445 33.8967 30.1902 32.84 31.4726 32.9423C31.9539 32.9813 32.6499 33.2113 33.2324 34.1047C33.2569 34.1047 34.2546 35.0791 35.5099 35.022C36.1914 34.9985 36.8071 34.6724 37.3961 34.0222C37.4003 33.9886 38.1583 32.8517 39.3191 32.8517C40.0458 32.8517 40.6838 33.2777 41.2163 34.1183C41.4363 34.4698 41.3359 34.9353 40.9866 35.1594C40.6389 35.3833 40.1696 35.2833 39.9474 34.9278C39.7197 34.5702 39.4858 34.3602 39.3191 34.3602C39.0756 34.3602 38.7217 34.7234 38.5905 34.9278C37.6477 35.9922 36.6462 36.497 35.5441 36.5283C35.5099 36.5283 35.4773 36.5283 35.4431 36.5283C33.5666 36.5283 32.1348 35.1181 32.0748 35.0572C31.7752 34.6292 31.5681 34.464 31.3568 34.4482C30.9846 34.3637 30.4415 34.8275 30.2541 35.0333C29.9748 35.3323 29.4916 35.3539 29.1903 35.0791Z" fill="url(#paint0_linear)"/>
</g>
<defs>
<filter id="filter0_d" x="0" y="0" width="70.2789" height="62" filterUnits="userSpaceOnUse" color-interpolation-filters="sRGB">
<feFlood flood-opacity="0" result="BackgroundImageFix"/>
<feColorMatrix in="SourceAlpha" type="matrix" values="0 0 0 0 0 0 0 0 0 0 0 0 0 0 0 0 0 0 127 0"/>
<feOffset dy="3"/>
<feGaussianBlur stdDeviation="5"/>
<feColorMatrix type="matrix" values="0 0 0 0 0 0 0 0 0 0 0 0 0 0 0 0 0 0 0.1 0"/>
<feBlend mode="normal" in2="BackgroundImageFix" result="effect1_dropShadow"/>
<feBlend mode="normal" in="SourceGraphic" in2="effect1_dropShadow" result="shape"/>
</filter>
<linearGradient id="paint0_linear" x1="35.1394" y1="7" x2="35.1394" y2="49" gradientUnits="userSpaceOnUse">
<stop stop-color="#FFD240"/>
<stop offset="1" stop-color="#DE1B4B" stop-opacity="0.97"/>
</linearGradient>
</defs>
</svg>
