<svg viewBox="0 0 62 62" fill="none" xmlns="http://www.w3.org/2000/svg">
<g filter="url(#filter0_d)">
<path d="M39.6953 7H22.3047C15.5199 7 10 12.5199 10 19.3047V36.6953C10 43.4801 15.5199 49 22.3047 49H39.6953C46.4801 49 52 43.4801 52 36.6953V19.3047C52 12.5199 46.4801 7 39.6953 7ZM50.3594 36.6953C50.3594 42.5755 45.5755 47.3594 39.6953 47.3594H22.3047C16.4245 47.3594 11.6406 42.5755 11.6406 36.6953V19.3047C11.6406 13.4245 16.4245 8.64062 22.3047 8.64062H39.6953C45.5755 8.64062 50.3594 13.4245 50.3594 19.3047V36.6953Z" fill="url(#paint0_linear)"/>
<path d="M39.6953 10.6094H22.3047C17.51 10.6094 13.6094 14.51 13.6094 19.3047V36.6953C13.6094 41.49 17.51 45.3906 22.3047 45.3906H27.3086C27.7617 45.3906 28.1289 45.0234 28.1289 44.5703C28.1289 44.1173 27.7617 43.75 27.3086 43.75H22.3047C18.4148 43.75 15.25 40.5852 15.25 36.6953V19.3047C15.25 15.4148 18.4148 12.25 22.3047 12.25H39.6953C43.5852 12.25 46.75 15.4148 46.75 19.3047V36.6953C46.75 40.5852 43.5852 43.75 39.6953 43.75H34.7461C34.2931 43.75 33.9258 44.1173 33.9258 44.5703C33.9258 45.0234 34.2931 45.3906 34.7461 45.3906H39.6953C44.49 45.3906 48.3906 41.49 48.3906 36.6953V19.3047C48.3906 14.51 44.49 10.6094 39.6953 10.6094Z" fill="url(#paint1_linear)"/>
<path d="M31.58 43.9904C31.4274 43.8378 31.2157 43.75 31 43.75C30.7843 43.75 30.5726 43.8378 30.42 43.9904C30.2675 44.1429 30.1797 44.3546 30.1797 44.5703C30.1797 44.7861 30.2675 44.9977 30.42 45.1503C30.5726 45.3029 30.7843 45.3906 31 45.3906C31.2157 45.3906 31.4274 45.3029 31.58 45.1503C31.7325 44.9977 31.8203 44.7861 31.8203 44.5703C31.8203 44.3546 31.7325 44.1429 31.58 43.9904Z" fill="url(#paint2_linear)"/>
<path d="M24.4236 19.7731C24.1137 19.4425 23.5947 19.4256 23.264 19.7353L23.2277 19.7695C22.8982 20.0804 22.8831 20.5996 23.1941 20.9291C23.3554 21.1001 23.5729 21.1864 23.7908 21.1864C23.9928 21.1864 24.1952 21.1122 24.3537 20.9627L24.3857 20.9326C24.7163 20.6228 24.7333 20.1037 24.4236 19.7731Z" fill="url(#paint3_linear)"/>
<path d="M31 16.6797C29.1983 16.6797 27.4051 17.1137 25.8142 17.9348C25.4117 18.1426 25.2538 18.6374 25.4616 19.0401C25.6694 19.4426 26.1643 19.6004 26.5668 19.3927C27.9453 18.6811 29.4369 18.3203 31 18.3203C36.3374 18.3203 40.6797 22.6626 40.6797 28C40.6797 33.3374 36.3374 37.6797 31 37.6797C25.6626 37.6797 21.3203 33.3374 21.3203 28C21.3203 26.325 21.7547 24.6747 22.5765 23.2276C22.8002 22.8337 22.6622 22.333 22.2682 22.1092C21.8742 21.8856 21.3736 22.0234 21.1498 22.4174C20.188 24.1111 19.6797 26.0415 19.6797 28C19.6797 34.242 24.758 39.3203 31 39.3203C37.242 39.3203 42.3203 34.242 42.3203 28C42.3203 21.758 37.242 16.6797 31 16.6797Z" fill="url(#paint4_linear)"/>
<path d="M31 20.6172C26.9291 20.6172 23.6172 23.9291 23.6172 28C23.6172 32.0709 26.9291 35.3828 31 35.3828C35.0709 35.3828 38.3828 32.0709 38.3828 28C38.3828 23.9291 35.0709 20.6172 31 20.6172ZM31 33.7422C27.8338 33.7422 25.2578 31.1662 25.2578 28C25.2578 24.8338 27.8338 22.2578 31 22.2578C34.1662 22.2578 36.7422 24.8338 36.7422 28C36.7422 31.1662 34.1662 33.7422 31 33.7422Z" fill="url(#paint5_linear)"/>
<path d="M41.7666 14.1162C40.0478 14.1162 38.6494 15.5146 38.6494 17.2334C38.6494 18.9522 40.0478 20.3506 41.7666 20.3506C43.4854 20.3506 44.8838 18.9522 44.8838 17.2334C44.8838 15.5146 43.4854 14.1162 41.7666 14.1162ZM41.7666 18.71C40.9524 18.71 40.29 18.0476 40.29 17.2334C40.29 16.4192 40.9524 15.7568 41.7666 15.7568C42.5808 15.7568 43.2432 16.4192 43.2432 17.2334C43.2432 18.0476 42.5808 18.71 41.7666 18.71Z" fill="url(#paint6_linear)"/>
<path d="M23.2668 20.8604L23.2668 20.8604C23.4085 21.0106 23.5993 21.0864 23.7908 21.0864C23.9683 21.0864 24.1458 21.0213 24.285 20.89L24.2852 20.8898L24.3173 20.8597L24.3174 20.8596C24.6077 20.5876 24.6226 20.1317 24.3506 19.8415C24.0786 19.5512 23.623 19.5363 23.3326 19.8081L23.2668 20.8604ZM23.2668 20.8604C22.9938 20.5711 23.007 20.1153 23.2962 19.8423L23.2668 20.8604ZM23.2963 19.8422L23.3324 19.8083L23.2963 19.8422ZM22.3047 7.1H39.6953C46.4249 7.1 51.9 12.5751 51.9 19.3047V36.6953C51.9 43.4249 46.4249 48.9 39.6953 48.9H22.3047C15.5751 48.9 10.1 43.4249 10.1 36.6953V19.3047C10.1 12.5751 15.5751 7.1 22.3047 7.1ZM39.6953 47.4594C45.6307 47.4594 50.4594 42.6307 50.4594 36.6953V19.3047C50.4594 13.3693 45.6307 8.54062 39.6953 8.54062H22.3047C16.3693 8.54062 11.5406 13.3693 11.5406 19.3047V36.6953C11.5406 42.6307 16.3693 47.4594 22.3047 47.4594H39.6953ZM22.3047 10.7094H39.6953C44.4347 10.7094 48.2906 14.5653 48.2906 19.3047V36.6953C48.2906 41.4347 44.4347 45.2906 39.6953 45.2906H34.7461C34.3483 45.2906 34.0258 44.9681 34.0258 44.5703C34.0258 44.1725 34.3483 43.85 34.7461 43.85H39.6953C43.6405 43.85 46.85 40.6405 46.85 36.6953V19.3047C46.85 15.3595 43.6405 12.15 39.6953 12.15H22.3047C18.3595 12.15 15.15 15.3595 15.15 19.3047V36.6953C15.15 40.6405 18.3595 43.85 22.3047 43.85H27.3086C27.7064 43.85 28.0289 44.1725 28.0289 44.5703C28.0289 44.9681 27.7064 45.2906 27.3086 45.2906H22.3047C17.5653 45.2906 13.7094 41.4347 13.7094 36.6953V19.3047C13.7094 14.5653 17.5653 10.7094 22.3047 10.7094ZM31 43.85C31.1892 43.85 31.3754 43.9272 31.5093 44.0611C31.6431 44.1949 31.7203 44.3811 31.7203 44.5703C31.7203 44.7595 31.6431 44.9457 31.5093 45.0796C31.3754 45.2134 31.1892 45.2906 31 45.2906C30.8108 45.2906 30.6246 45.2134 30.4907 45.0796C30.3569 44.9457 30.2797 44.7595 30.2797 44.5703C30.2797 44.3811 30.3569 44.1949 30.4907 44.0611C30.6246 43.9272 30.8108 43.85 31 43.85ZM25.8601 18.0237C27.4367 17.2099 29.2141 16.7797 31 16.7797C37.1868 16.7797 42.2203 21.8132 42.2203 28C42.2203 34.1868 37.1868 39.2203 31 39.2203C24.8132 39.2203 19.7797 34.1868 19.7797 28C19.7797 26.0587 20.2836 24.1453 21.2367 22.4668C21.4332 22.1209 21.8728 21.9998 22.2188 22.1961C22.5648 22.3926 22.6859 22.8323 22.4895 23.1782C21.6591 24.6405 21.2203 26.3078 21.2203 28C21.2203 33.3926 25.6074 37.7797 31 37.7797C36.3926 37.7797 40.7797 33.3926 40.7797 28C40.7797 22.6074 36.3926 18.2203 31 18.2203C29.4211 18.2203 27.9138 18.5848 26.5209 19.3038C26.1675 19.4862 25.733 19.3476 25.5504 18.9942C25.368 18.6407 25.5067 18.2062 25.8601 18.0237ZM23.7172 28C23.7172 23.9843 26.9843 20.7172 31 20.7172C35.0157 20.7172 38.2828 23.9843 38.2828 28C38.2828 32.0157 35.0157 35.2828 31 35.2828C26.9843 35.2828 23.7172 32.0157 23.7172 28ZM25.1578 28C25.1578 31.2215 27.7785 33.8422 31 33.8422C34.2215 33.8422 36.8422 31.2215 36.8422 28C36.8422 24.7785 34.2215 22.1578 31 22.1578C27.7785 22.1578 25.1578 24.7785 25.1578 28ZM38.7494 17.2334C38.7494 15.5698 40.103 14.2162 41.7666 14.2162C43.4302 14.2162 44.7838 15.5698 44.7838 17.2334C44.7838 18.897 43.4302 20.2506 41.7666 20.2506C40.103 20.2506 38.7494 18.897 38.7494 17.2334ZM40.19 17.2334C40.19 18.1028 40.8972 18.81 41.7666 18.81C42.636 18.81 43.3432 18.1028 43.3432 17.2334C43.3432 16.364 42.636 15.6568 41.7666 15.6568C40.8972 15.6568 40.19 16.364 40.19 17.2334Z" stroke="white" stroke-width="0.2"/>
</g>
<defs>
<filter id="filter0_d" x="0" y="0" width="62" height="62" filterUnits="userSpaceOnUse" color-interpolation-filters="sRGB">
<feFlood flood-opacity="0" result="BackgroundImageFix"/>
<feColorMatrix in="SourceAlpha" type="matrix" values="0 0 0 0 0 0 0 0 0 0 0 0 0 0 0 0 0 0 127 0"/>
<feOffset dy="3"/>
<feGaussianBlur stdDeviation="5"/>
<feColorMatrix type="matrix" values="0 0 0 0 0 0 0 0 0 0 0 0 0 0 0 0 0 0 0.1 0"/>
<feBlend mode="normal" in2="BackgroundImageFix" result="effect1_dropShadow"/>
<feBlend mode="normal" in="SourceGraphic" in2="effect1_dropShadow" result="shape"/>
</filter>
<linearGradient id="paint0_linear" x1="31" y1="7" x2="31" y2="49" gradientUnits="userSpaceOnUse">
<stop stop-color="#FFD240"/>
<stop offset="1" stop-color="#DE1B4B" stop-opacity="0.97"/>
</linearGradient>
<linearGradient id="paint1_linear" x1="31" y1="7" x2="31" y2="49" gradientUnits="userSpaceOnUse">
<stop stop-color="#FFD240"/>
<stop offset="1" stop-color="#DE1B4B" stop-opacity="0.97"/>
</linearGradient>
<linearGradient id="paint2_linear" x1="31" y1="7" x2="31" y2="49" gradientUnits="userSpaceOnUse">
<stop stop-color="#FFD240"/>
<stop offset="1" stop-color="#DE1B4B" stop-opacity="0.97"/>
</linearGradient>
<linearGradient id="paint3_linear" x1="31" y1="7" x2="31" y2="49" gradientUnits="userSpaceOnUse">
<stop stop-color="#FFD240"/>
<stop offset="1" stop-color="#DE1B4B" stop-opacity="0.97"/>
</linearGradient>
<linearGradient id="paint4_linear" x1="31" y1="7" x2="31" y2="49" gradientUnits="userSpaceOnUse">
<stop stop-color="#FFD240"/>
<stop offset="1" stop-color="#DE1B4B" stop-opacity="0.97"/>
</linearGradient>
<linearGradient id="paint5_linear" x1="31" y1="7" x2="31" y2="49" gradientUnits="userSpaceOnUse">
<stop stop-color="#FFD240"/>
<stop offset="1" stop-color="#DE1B4B" stop-opacity="0.97"/>
</linearGradient>
<linearGradient id="paint6_linear" x1="31" y1="7" x2="31" y2="49" gradientUnits="userSpaceOnUse">
<stop stop-color="#FFD240"/>
<stop offset="1" stop-color="#DE1B4B" stop-opacity="0.97"/>
</linearGradient>
</defs>
</svg>
