<svg width="341" height="35" viewBox="0 0 341 35" fill="none" xmlns="http://www.w3.org/2000/svg">
<path d="M34.8 33.792H35.184V34.272H24.384V33.792H24.816C25.488 33.792 25.984 33.584 26.304 33.168C26.656 32.72 26.832 32.304 26.832 31.92C26.832 31.536 26.768 31.152 26.64 30.768L23.568 22.608H10.608L7.392 30.816C7.264 31.2 7.2 31.584 7.2 31.968C7.2 32.32 7.36 32.72 7.68 33.168C8.032 33.584 8.544 33.792 9.216 33.792H9.648V34.272H0V33.792H0.432C1.232 33.792 2.016 33.536 2.784 33.024C3.552 32.512 4.176 31.76 4.656 30.768L15.504 4.944C16.688 2.352 17.28 0.704 17.28 0H17.712L30.576 30.768C31.024 31.76 31.632 32.512 32.4 33.024C33.168 33.536 33.968 33.792 34.8 33.792ZM11.184 21.168H22.992L17.232 5.76L11.184 21.168Z" fill="black"/>
<path d="M37.9159 33.792C38.6839 33.792 39.3239 33.552 39.8359 33.072C40.3799 32.56 40.6679 31.952 40.6999 31.248V8.544C40.6679 7.84 40.3639 7.232 39.7879 6.72C39.2439 6.208 38.5879 5.952 37.8199 5.952H37.2439V5.472H47.1799V5.952H46.6039C45.8359 5.952 45.1639 6.208 44.5879 6.72C44.0439 7.232 43.7719 7.84 43.7719 8.544V32.784H51.2599C52.7319 32.784 53.9799 32.528 55.0039 32.016C56.0279 31.504 56.7959 30.896 57.3079 30.192C57.8519 29.488 58.3799 28.56 58.8919 27.408H59.3719L56.7319 34.272H37.2439V33.792H37.9159Z" fill="black"/>
<path d="M62.4784 33.792C63.2464 33.792 63.8864 33.552 64.3984 33.072C64.9424 32.56 65.2304 31.952 65.2624 31.248V8.448C65.2624 7.744 64.9904 7.152 64.4464 6.672C63.9024 6.192 63.2464 5.952 62.4784 5.952H61.8064V5.472H75.8224C77.1344 5.472 78.2864 5.376 79.2784 5.184C80.2704 4.992 80.9104 4.832 81.1984 4.704V10.176L80.6704 10.128V9.408C80.6704 8.736 80.4464 8.16 79.9984 7.68C79.5504 7.2 78.9744 6.96 78.2704 6.96H68.2864V19.152H76.4944C77.1344 19.152 77.6144 18.96 77.9344 18.576C78.2864 18.192 78.4624 17.712 78.4624 17.136V16.512H78.9904V23.232H78.4624V22.608C78.4624 21.712 78.1264 21.104 77.4544 20.784C77.1984 20.688 76.9264 20.624 76.6384 20.592H68.2864V32.784H75.8224C77.2944 32.784 78.5264 32.528 79.5184 32.016C80.5424 31.504 81.3104 30.896 81.8224 30.192C82.3664 29.488 82.9104 28.56 83.4544 27.408H83.9344L81.2944 34.272H61.8064V33.792H62.4784Z" fill="black"/>
<path d="M120.266 5.952C119.562 5.952 118.953 6.192 118.441 6.672C117.929 7.12 117.658 7.68 117.626 8.352V28.8C117.626 30.656 117.738 32.416 117.962 34.08L118.058 34.944H117.626L92.6655 11.28V31.296C92.6655 32 92.9215 32.592 93.4335 33.072C93.9455 33.552 94.5695 33.792 95.3055 33.792H96.1215V34.272H87.0495V33.792H87.8655C88.6015 33.792 89.2255 33.552 89.7375 33.072C90.2495 32.592 90.5055 32 90.5055 31.296V10.752C90.5055 8.8 90.3935 7.056 90.1695 5.52L90.0735 4.752L90.6015 4.8L115.513 28.272V8.352C115.449 7.68 115.161 7.12 114.649 6.672C114.137 6.192 113.53 5.952 112.826 5.952H112.009V5.472H121.081V5.952H120.266Z" fill="black"/>
<path d="M154.456 33.792H154.84V34.272H145V33.792H145.384C145.992 33.792 146.456 33.584 146.776 33.168C147.096 32.752 147.256 32.368 147.256 32.016C147.256 31.632 147.192 31.264 147.064 30.912L144.424 24.528H132.28L129.64 30.768C129.48 31.184 129.4 31.584 129.4 31.968C129.4 32.32 129.56 32.72 129.88 33.168C130.2 33.584 130.68 33.792 131.32 33.792H131.704V34.272H122.536V33.792H122.92C123.592 33.792 124.264 33.568 124.936 33.12C125.64 32.64 126.216 31.936 126.664 31.008C133.672 16.032 137.32 8.192 137.608 7.488C138.152 6.144 138.44 5.248 138.472 4.8H138.904L150.76 31.008C151.688 32.864 152.92 33.792 154.456 33.792ZM132.904 23.088H143.848L138.472 9.936L132.904 23.088Z" fill="black"/>
<path d="M176.3 9.456C176.78 10.384 177.02 11.504 177.02 12.816C177.02 14.128 176.492 15.344 175.436 16.464C174.38 17.552 173.148 18.272 171.74 18.624C174.076 18.88 175.996 19.728 177.5 21.168C179.036 22.608 179.804 24.192 179.804 25.92C179.804 27.616 179.468 29.008 178.796 30.096C178.156 31.184 177.292 32.016 176.204 32.592C174.124 33.712 171.772 34.272 169.148 34.272H157.244V33.792H157.82C158.62 33.792 159.292 33.552 159.836 33.072C160.38 32.56 160.668 31.936 160.7 31.2V8.544C160.668 7.488 160.188 6.736 159.26 6.288C158.844 6.064 158.364 5.952 157.82 5.952H157.244V5.472H167.036C171.804 5.472 174.892 6.8 176.3 9.456ZM176.396 26.208C176.396 21.44 172.668 19.056 165.212 19.056V18.576C170.844 18.576 173.66 16.608 173.66 12.672C173.66 8.832 171.436 6.912 166.988 6.912H163.724V32.832H169.1C171.276 32.832 173.036 32.288 174.38 31.2C175.724 30.08 176.396 28.416 176.396 26.208Z" fill="black"/>
<path d="M193.595 6.96H191.051V31.2C191.083 32.192 191.531 32.944 192.395 33.456C192.811 33.68 193.275 33.792 193.787 33.792H194.411L194.459 34.272H184.619V33.792H185.291C186.027 33.792 186.651 33.552 187.163 33.072C187.707 32.56 187.979 31.952 187.979 31.248V8.448C187.979 7.744 187.707 7.152 187.163 6.672C186.651 6.192 186.027 5.952 185.291 5.952H184.619V5.472H196.667C199.675 5.472 202.043 6.16 203.771 7.536C205.531 8.912 206.411 10.72 206.411 12.96C206.411 15.2 205.707 17.072 204.299 18.576C202.891 20.08 201.099 20.944 198.923 21.168C199.947 21.616 201.179 22.864 202.619 24.912C202.587 24.912 203.131 25.616 204.251 27.024C205.403 28.432 206.315 29.536 206.987 30.336C207.691 31.104 208.267 31.696 208.715 32.112C209.899 33.232 211.259 33.792 212.795 33.792V34.272H211.307C208.779 34.272 206.795 33.776 205.355 32.784C204.267 32.048 203.275 31.136 202.379 30.048C202.187 29.792 201.371 28.672 199.931 26.688C198.523 24.672 197.771 23.6 197.675 23.472C195.947 21.328 194.331 20.256 192.827 20.256V19.776C196.571 19.776 198.827 19.584 199.595 19.2C200.651 18.656 201.371 18.08 201.755 17.472C202.555 16.192 202.955 14.784 202.955 13.248C202.955 11.296 202.379 9.792 201.227 8.736C200.075 7.68 198.523 7.104 196.571 7.008C195.707 6.976 194.715 6.96 193.595 6.96Z" fill="black"/>
<path d="M220.849 6.72C223.313 5.44 226.017 4.8 228.961 4.8C231.937 4.8 234.657 5.44 237.121 6.72C239.585 7.968 241.537 9.744 242.977 12.048C244.449 14.352 245.185 16.96 245.185 19.872C245.185 22.784 244.449 25.392 242.977 27.696C241.537 30 239.585 31.792 237.121 33.072C234.657 34.32 232.129 34.944 229.537 34.944C226.945 34.944 224.657 34.576 222.673 33.84C220.689 33.104 218.961 32.08 217.489 30.768C216.049 29.456 214.897 27.856 214.033 25.968C213.201 24.08 212.785 21.872 212.785 19.344C212.785 16.784 213.505 14.352 214.945 12.048C216.417 9.744 218.385 7.968 220.849 6.72ZM219.937 29.712C222.369 32.24 225.377 33.504 228.961 33.504C232.545 33.504 235.553 32.24 237.985 29.712C240.417 27.152 241.633 23.872 241.633 19.872C241.633 15.872 240.417 12.608 237.985 10.08C235.553 7.52 232.545 6.24 228.961 6.24C225.377 6.24 222.369 7.52 219.937 10.08C217.537 12.608 216.337 15.872 216.337 19.872C216.337 23.872 217.537 27.152 219.937 29.712Z" fill="black"/>
<path d="M278.732 5.952H278.348C277.643 5.952 276.956 6.192 276.284 6.672C275.612 7.12 275.036 7.808 274.556 8.736C267.579 23.712 263.948 31.552 263.66 32.256C263.116 33.6 262.828 34.496 262.796 34.944H262.363L250.508 8.784C249.58 6.896 248.348 5.952 246.812 5.952H246.428V5.472H256.267V5.952H255.884C255.276 5.952 254.812 6.176 254.492 6.624C254.204 7.04 254.06 7.424 254.06 7.776C254.06 8.128 254.108 8.496 254.204 8.88L262.796 29.808L271.628 8.976C271.788 8.56 271.867 8.176 271.867 7.824C271.867 7.44 271.708 7.04 271.388 6.624C271.068 6.176 270.588 5.952 269.948 5.952H269.612V5.472H278.732V5.952Z" fill="black"/>
<path d="M308.64 34.272H306.864C303.728 34.272 301.376 33.36 299.808 31.536L289.248 19.968L299.568 7.824C299.92 7.376 299.968 6.96 299.712 6.576C299.488 6.16 299.088 5.952 298.512 5.952H298.08V5.472H307.872V5.952H307.68C305.728 5.952 304.176 6.528 303.024 7.68L292.56 18.864L304.464 31.824C305.04 32.528 305.632 33.024 306.24 33.312C306.848 33.6 307.648 33.76 308.64 33.792V34.272ZM290.4 33.792H290.928V34.272H281.088V33.792H281.664C282.432 33.792 283.088 33.536 283.632 33.024C284.176 32.512 284.464 31.904 284.496 31.2V8.544C284.464 7.84 284.176 7.232 283.632 6.72C283.088 6.208 282.432 5.952 281.664 5.952H281.088V5.472H290.928V5.952H290.352C289.328 5.952 288.528 6.368 287.952 7.2C287.696 7.584 287.568 8.016 287.568 8.496V31.248C287.568 31.952 287.84 32.56 288.384 33.072C288.96 33.552 289.632 33.792 290.4 33.792Z" fill="black"/>
<path d="M340.081 33.792H340.465V34.272H330.625V33.792H331.009C331.617 33.792 332.081 33.584 332.401 33.168C332.721 32.752 332.881 32.368 332.881 32.016C332.881 31.632 332.817 31.264 332.689 30.912L330.049 24.528H317.905L315.265 30.768C315.105 31.184 315.025 31.584 315.025 31.968C315.025 32.32 315.185 32.72 315.505 33.168C315.825 33.584 316.305 33.792 316.945 33.792H317.329V34.272H308.161V33.792H308.545C309.217 33.792 309.889 33.568 310.561 33.12C311.265 32.64 311.841 31.936 312.289 31.008C319.297 16.032 322.945 8.192 323.233 7.488C323.777 6.144 324.065 5.248 324.097 4.8H324.529L336.385 31.008C337.313 32.864 338.545 33.792 340.081 33.792ZM318.529 23.088H329.473L324.097 9.936L318.529 23.088Z" fill="black"/>
</svg>
