<svg width="59" height="59" viewBox="0 0 59 59" fill="none" xmlns="http://www.w3.org/2000/svg">
<path d="M41.7912 4.91623C45.0484 4.92596 48.1694 6.22418 50.4726 8.52738C52.7758 10.8306 54.074 13.9516 54.0838 17.2088V41.7912C54.074 45.0484 52.7758 48.1694 50.4726 50.4726C48.1694 52.7758 45.0484 54.074 41.7912 54.0838H17.2088C13.9516 54.074 10.8306 52.7758 8.52738 50.4726C6.22418 48.1694 4.92596 45.0484 4.91623 41.7912V17.2088C4.92596 13.9516 6.22418 10.8306 8.52738 8.52738C10.8306 6.22418 13.9516 4.92596 17.2088 4.91623H41.7912ZM41.7912 0H17.2088C7.74375 0 0 7.74375 0 17.2088V41.7912C0 51.2562 7.74375 59 17.2088 59H41.7912C51.2562 59 59 51.2562 59 41.7912V17.2088C59 7.74375 51.2562 0 41.7912 0Z" fill="black"/>
<path d="M45.4787 17.2088C44.7494 17.2088 44.0365 16.9925 43.4301 16.5873C42.8237 16.1821 42.351 15.6062 42.0719 14.9324C41.7928 14.2586 41.7198 13.5172 41.8621 12.8019C42.0044 12.0866 42.3556 11.4295 42.8713 10.9138C43.387 10.3981 44.044 10.0469 44.7593 9.90463C45.4746 9.76234 46.2161 9.83537 46.8899 10.1145C47.5637 10.3936 48.1396 10.8662 48.5448 11.4726C48.95 12.079 49.1662 12.792 49.1662 13.5213C49.1673 14.0058 49.0726 14.4858 48.8877 14.9336C48.7027 15.3815 48.4311 15.7884 48.0885 16.1311C47.7459 16.4737 47.339 16.7453 46.8911 16.9302C46.4432 17.1151 45.9633 17.2098 45.4787 17.2088Z" fill="black"/>
<path d="M29.5 19.6662C31.4449 19.6662 33.3462 20.243 34.9634 21.3235C36.5805 22.4041 37.8409 23.9399 38.5852 25.7368C39.3295 27.5337 39.5243 29.5109 39.1448 31.4185C38.7654 33.326 37.8288 35.0782 36.4535 36.4535C35.0782 37.8288 33.326 38.7654 31.4185 39.1448C29.5109 39.5243 27.5337 39.3295 25.7368 38.5852C23.9399 37.8409 22.4041 36.5805 21.3235 34.9634C20.243 33.3462 19.6662 31.4449 19.6662 29.5C19.669 26.8928 20.706 24.3931 22.5496 22.5496C24.3931 20.706 26.8928 19.669 29.5 19.6662ZM29.5 14.75C26.5827 14.75 23.731 15.6151 21.3053 17.2358C18.8797 18.8566 16.9892 21.1602 15.8728 23.8554C14.7564 26.5506 14.4643 29.5164 15.0334 32.3776C15.6026 35.2388 17.0074 37.867 19.0702 39.9298C21.133 41.9926 23.7612 43.3975 26.6224 43.9666C29.4836 44.5357 32.4494 44.2436 35.1446 43.1272C37.8398 42.0108 40.1434 40.1203 41.7642 37.6947C43.3849 35.269 44.25 32.4173 44.25 29.5C44.25 25.5881 42.696 21.8363 39.9298 19.0702C37.1637 16.304 33.4119 14.75 29.5 14.75Z" fill="black"/>
</svg>
